<svg xmlns="http://www.w3.org/2000/svg" viewBox="0 0 192 192" width="192" height="192" role="img" aria-label="Terra preview"><rect width="192" height="192" rx="20" fill="#0d1420"/><g transform="translate(96 96)"><circle r="58" fill="#4db8e8" stroke="#17202b" stroke-width="8"/><path d="M-44-20c18-30 45-40 64-24 11 9 10 21-2 29-8 5-15 2-23 6-11 6-15 19-28 17-17-2-22-15-11-28Z" fill="#54bd68"/><path d="M3 13c18-8 36-3 42 11 5 12-5 22-18 28-11 5-12 15-23 13-15-2-24-15-18-29 4-9 9-18 17-23Z" fill="#54bd68"/><circle cx="-18" cy="-5" r="7" fill="#17202b"/><circle cx="18" cy="-5" r="7" fill="#17202b"/><circle cx="-16" cy="-8" r="2" fill="#fff"/><circle cx="20" cy="-8" r="2" fill="#fff"/><path d="M-17 19q17 16 34 0" fill="none" stroke="#17202b" stroke-width="6" stroke-linecap="round"/><path d="M0-58v-22" stroke="#684a2f" stroke-width="8" stroke-linecap="round"/><ellipse cx="-12" cy="-82" rx="18" ry="10" fill="#54bd68" transform="rotate(-25 -12 -82)"/><ellipse cx="13" cy="-82" rx="18" ry="10" fill="#54bd68" transform="rotate(25 13 -82)"/><path d="M-50 40q-19 13-15 32" fill="none" stroke="#17202b" stroke-width="8" stroke-linecap="round"/><path d="M50 40q19 13 15 32" fill="none" stroke="#17202b" stroke-width="8" stroke-linecap="round"/><path d="M-27 57v23M27 57v23" stroke="#17202b" stroke-width="8" stroke-linecap="round"/><rect x="39" y="-5" width="24" height="52" rx="8" fill="#9a6b42" stroke="#17202b" stroke-width="6"/></g></svg>